solid 
 facet normal -1.000000e+00  0.000000e+00  0.000000e+00
   outer loop
     vertex -3.750000e+01 -3.750000e+01 -3.750000e+01
     vertex -3.750000e+01  3.750000e+01  3.750000e+01
     vertex -3.750000e+01  3.750000e+01 -3.750000e+01
   endloop
 endfacet
 facet normal  1.000000e+00 -0.000000e+00  0.000000e+00
   outer loop
     vertex  3.750000e+01 -3.750000e+01 -3.750000e+01
     vertex  3.750000e+01  3.750000e+01 -3.750000e+01
     vertex  3.750000e+01  3.750000e+01  3.750000e+01
   endloop
 endfacet
 facet normal  0.000000e+00 -1.894781e-16 -1.000000e+00
   outer loop
     vertex  3.750000e+01 -3.750000e+01 -3.750000e+01
     vertex -3.750000e+01  3.750000e+01 -3.750000e+01
     vertex  3.750000e+01  3.750000e+01 -3.750000e+01
   endloop
 endfacet
 facet normal -0.000000e+00 -1.894781e-16 -1.000000e+00
   outer loop
     vertex  3.750000e+01 -3.750000e+01 -3.750000e+01
     vertex -3.750000e+01 -3.750000e+01 -3.750000e+01
     vertex -3.750000e+01  3.750000e+01 -3.750000e+01
   endloop
 endfacet
 facet normal  0.000000e+00  1.000000e+00 -1.894781e-16
   outer loop
     vertex  3.750000e+01  3.750000e+01  3.750000e+01
     vertex -3.750000e+01  3.750000e+01 -3.750000e+01
     vertex -3.750000e+01  3.750000e+01  3.750000e+01
   endloop
 endfacet
 facet normal  0.000000e+00  1.000000e+00 -1.894781e-16
   outer loop
     vertex  3.750000e+01  3.750000e+01  3.750000e+01
     vertex  3.750000e+01  3.750000e+01 -3.750000e+01
     vertex -3.750000e+01  3.750000e+01 -3.750000e+01
   endloop
 endfacet
 facet normal  0.000000e+00 -7.071068e-01  7.071068e-01
   outer loop
     vertex -3.750000e+01  3.750000e+01  3.750000e+01
     vertex -3.750000e+01 -3.750000e+01 -3.750000e+01
     vertex  3.750000e+01 -3.750000e+01 -3.750000e+01
   endloop
 endfacet
 facet normal  0.000000e+00 -7.071068e-01  7.071068e-01
   outer loop
     vertex -3.750000e+01  3.750000e+01  3.750000e+01
     vertex  3.750000e+01 -3.750000e+01 -3.750000e+01
     vertex  3.750000e+01  3.750000e+01  3.750000e+01
   endloop
 endfacet
endsolid
