solid 
 facet normal -1.000000e+00  0.000000e+00  0.000000e+00
   outer loop
     vertex -4.150000e+01 -1.875000e+01  2.000000e+00
     vertex -4.150000e+01  1.875000e+01 -2.000000e+00
     vertex -4.150000e+01 -1.875000e+01 -2.000000e+00
   endloop
 endfacet
 facet normal -1.000000e+00  0.000000e+00  0.000000e+00
   outer loop
     vertex -4.150000e+01 -1.875000e+01  2.000000e+00
     vertex -4.150000e+01  1.875000e+01  2.000000e+00
     vertex -4.150000e+01  1.875000e+01 -2.000000e+00
   endloop
 endfacet
 facet normal  1.000000e+00  0.000000e+00  0.000000e+00
   outer loop
     vertex  4.150000e+01 -1.875000e+01  2.000000e+00
     vertex  4.150000e+01 -1.875000e+01 -2.000000e+00
     vertex  4.150000e+01  1.875000e+01 -2.000000e+00
   endloop
 endfacet
 facet normal  1.000000e+00 -0.000000e+00  0.000000e+00
   outer loop
     vertex  4.150000e+01 -1.875000e+01  2.000000e+00
     vertex  4.150000e+01  1.875000e+01 -2.000000e+00
     vertex  4.150000e+01  1.875000e+01  2.000000e+00
   endloop
 endfacet
 facet normal  0.000000e+00 -1.000000e+00 -0.000000e+00
   outer loop
     vertex  4.150000e+01 -1.875000e+01  2.000000e+00
     vertex -4.150000e+01 -1.875000e+01 -2.000000e+00
     vertex  4.150000e+01 -1.875000e+01 -2.000000e+00
   endloop
 endfacet
 facet normal -0.000000e+00 -1.000000e+00  0.000000e+00
   outer loop
     vertex  4.150000e+01 -1.875000e+01  2.000000e+00
     vertex -4.150000e+01 -1.875000e+01  2.000000e+00
     vertex -4.150000e+01 -1.875000e+01 -2.000000e+00
   endloop
 endfacet
 facet normal  0.000000e+00  1.000000e+00  0.000000e+00
   outer loop
     vertex  4.150000e+01  1.875000e+01  2.000000e+00
     vertex  4.150000e+01  1.875000e+01 -2.000000e+00
     vertex -4.150000e+01  1.875000e+01 -2.000000e+00
   endloop
 endfacet
 facet normal  0.000000e+00  1.000000e+00  0.000000e+00
   outer loop
     vertex  4.150000e+01  1.875000e+01  2.000000e+00
     vertex -4.150000e+01  1.875000e+01 -2.000000e+00
     vertex -4.150000e+01  1.875000e+01  2.000000e+00
   endloop
 endfacet
 facet normal -0.000000e+00  0.000000e+00 -1.000000e+00
   outer loop
     vertex  4.150000e+01  1.875000e+01 -2.000000e+00
     vertex -4.150000e+01 -1.875000e+01 -2.000000e+00
     vertex -4.150000e+01  1.875000e+01 -2.000000e+00
   endloop
 endfacet
 facet normal  0.000000e+00 -0.000000e+00 -1.000000e+00
   outer loop
     vertex  4.150000e+01  1.875000e+01 -2.000000e+00
     vertex  4.150000e+01 -1.875000e+01 -2.000000e+00
     vertex -4.150000e+01 -1.875000e+01 -2.000000e+00
   endloop
 endfacet
 facet normal  0.000000e+00  0.000000e+00  1.000000e+00
   outer loop
     vertex  4.150000e+01  1.875000e+01  2.000000e+00
     vertex -4.150000e+01  1.875000e+01  2.000000e+00
     vertex -4.150000e+01 -1.875000e+01  2.000000e+00
   endloop
 endfacet
 facet normal  0.000000e+00  0.000000e+00  1.000000e+00
   outer loop
     vertex  4.150000e+01  1.875000e+01  2.000000e+00
     vertex -4.150000e+01 -1.875000e+01  2.000000e+00
     vertex  4.150000e+01 -1.875000e+01  2.000000e+00
   endloop
 endfacet
endsolid
